<?xml version="1.0" standalone="no"?>
<!DOCTYPE svg PUBLIC "-//W3C//DTD SVG 20010904//EN"
 "http://www.w3.org/TR/2001/REC-SVG-20010904/DTD/svg10.dtd">
<svg version="1.0" xmlns="http://www.w3.org/2000/svg"
 width="28.000000pt" height="32.000000pt" viewBox="0 0 28.000000 32.000000"
 preserveAspectRatio="xMidYMid meet">

<g transform="translate(0.000000,32.000000) scale(0.100000,-0.100000)"
fill="#000000" stroke="none">
<path d="M124 257 c-37 -31 -45 -32 -85 -11 l-30 15 2 -53 c1 -29 -2 -76 -6
-105 -7 -47 -5 -53 18 -77 24 -24 33 -26 112 -26 82 0 88 1 116 29 19 19 29
40 29 59 0 37 -35 82 -63 82 -27 0 -50 33 -57 79 l-5 34 -31 -26z m23 -44 c-3
-3 -11 -2 -17 2 -8 5 -7 11 2 22 12 15 13 14 16 -1 2 -10 1 -20 -1 -23z m-93
-30 c-15 -11 -20 -11 -27 3 -5 8 -6 22 -3 31 6 14 9 14 27 -3 19 -17 19 -19 3
-31z m117 -55 c6 -13 8 -20 4 -16 -5 4 -14 3 -22 -4 -7 -6 -17 -8 -21 -4 -4 4
1 13 10 20 10 7 15 16 11 19 -3 4 -3 7 0 7 3 0 12 -10 18 -22z m-77 -13 c19
-4 26 -9 19 -16 -7 -7 -22 -5 -47 5 -37 15 -50 31 -18 23 9 -3 30 -8 46 -12z
m-39 -17 c22 -10 26 -17 23 -47 -2 -19 -8 -36 -15 -38 -20 -7 -53 35 -53 67 0
33 7 36 45 18z"/>
</g>
</svg>
