<?xml version="1.0" encoding="utf-8"?>
<!-- Generator: Adobe Illustrator 21.0.2, SVG Export Plug-In . SVG Version: 6.00 Build 0)  -->
<svg version="1.1" id="Ebene_1" xmlns="http://www.w3.org/2000/svg" xmlns:xlink="http://www.w3.org/1999/xlink" x="0px" y="0px"
	 viewBox="0 0 331 292" style="enable-background:new 0 0 331 292;" xml:space="preserve">
<style type="text/css">
	.st0{clip-path:url(#SVGID_2_);}
	.st1{enable-background:new    ;}
</style>
<g id="Gruppe_6" transform="translate(-102 -79)">
	<g id="Gruppe_5" transform="translate(102 79)">
		<g>
			<defs>
				<rect id="SVGID_1_" width="268.9" height="272.3"/>
			</defs>
			<clipPath id="SVGID_2_">
				<use xlink:href="#SVGID_1_"  style="overflow:visible;"/>
			</clipPath>
			<g id="Gruppe_1" class="st0">
				<path id="Pfad_1" d="M266.3,0c0,8.1,0.1,15.5-0.1,22.8c0,0.8-1.5,1.8-2.5,2.3c-11.3,5.2-22.3,10.7-32.6,17.7
					c-19,13-33.2,29.8-38.5,52.7c-7.6,32.6,1.7,60.3,25.8,83.3c5,4.8,15,10.2,19.7,11.2c0-1.2,0-2.3,0-3.4
					c-0.1-21.2-0.1-42.4-0.2-63.7c0-4.4,0-4.4,4.2-4.4h26.7v111.6c-0.7,0.1-1.4,0.1-2,0c-20.8-5.3-41.4-11.4-59.4-23.7
					c-27.3-18.6-44.7-44-49.1-77c-4.2-31.5,5-59.2,27.2-82c18.3-18.8,39.6-33.3,64.4-42.6C255.1,2.9,260.5,1.7,266.3,0"/>
				<path id="Pfad_2" d="M0,272.3v-24.5c2.6-0.6,5.3-1.3,8.1-1.9c20.5-4.7,32.4-18.1,37-38.1c1.5-7.1,2.2-14.3,2.1-21.6
					c0.2-35.5,0.1-71,0.1-106.5c0-22.1-0.2-44.1-0.4-66.2c0-4.9,0-5,4.7-5c8.1-0.1,16.2,0.1,24.2-0.1c3-0.1,3.7,0.9,3.7,3.8
					c-0.1,45.8-0.2,91.6-0.2,137.4c0,14.5,0.3,29-0.2,43.5c-0.5,18.5-5.4,35.7-17.9,49.9c-5.9,6.7-13,12.3-21,16.4
					c-11.4,5.9-23.4,10.5-36.1,12.5C2.8,272.2,1.5,272.2,0,272.3"/>
				<path id="Pfad_3" d="M163.4,8.9c-0.4,0.5-0.9,0.9-1.4,1.3c-16.5,11.4-29.1,27.8-35.9,46.7c-6.3,17.2-4.8,34.2,2.8,50.5
					c5.8,12.4,12.5,24.5,18.7,36.8c4.9,9.7,8.6,19.8,9,30.9c0.7,17.1-4.5,32.5-13.4,46.8c-4.5,7.4-4.6,7.3-13.3,7.3
					c-9.7,0-19.3,0-29,0c-1,0-2-0.1-3.6-0.2c2.3-2.4,4.3-4.4,6.1-6.5c8.7-9.4,16-19.7,19.6-32.3c2.1-7.2,2.2-14.4-0.8-21.3
					c-5.8-13.4-11.7-26.7-17.8-40c-5.8-12.7-11.3-25.6-13.3-39.6c-3.1-21.8,1.9-42,13.4-60.5c4-6.4,8.9-12.2,13.6-18.1
					c1.1-1.3,2.7-2.1,4.5-2.2c12.7-0.2,25.4-0.1,38.1-0.1C161.8,8.6,162.6,8.7,163.4,8.9"/>
			</g>
		</g>
	</g>
	<g class="st1">
		<path d="M178.6,341.8c0.1,0,0.3,0,0.4,0c0.6,0,0.9,0.2,0.9,0.7v8.6c0,0.6-0.1,1.1-0.3,1.5c-0.2,0.4-0.4,0.7-0.7,1
			c-0.3,0.2-0.6,0.4-1,0.5c-0.4,0.1-0.8,0.2-1.2,0.2c-0.8,0-1.3-0.1-1.7-0.3c-0.3-0.2-0.5-0.4-0.5-0.7c0-0.2,0-0.3,0.1-0.5
			c0.1-0.1,0.2-0.2,0.2-0.3c0.2,0.1,0.4,0.2,0.7,0.3c0.3,0.1,0.6,0.1,0.9,0.1c0.6,0,1.1-0.1,1.4-0.4c0.3-0.3,0.5-0.8,0.5-1.5v-9.1
			C178.4,341.9,178.5,341.8,178.6,341.8z"/>
		<path d="M183.2,344.8c0.1,0,0.2-0.1,0.3-0.1s0.3,0,0.4,0c0.6,0,0.8,0.2,0.8,0.7v5.1c0,0.9,0.2,1.5,0.7,1.8
			c0.5,0.4,1.1,0.6,1.9,0.6c0.5,0,1-0.1,1.4-0.2c0.4-0.1,0.7-0.2,0.9-0.3v-7.6c0.1,0,0.2-0.1,0.3-0.1s0.3,0,0.4,0
			c0.6,0,0.9,0.2,0.9,0.7v7c0,0.3,0,0.5-0.1,0.7c-0.1,0.2-0.3,0.3-0.5,0.5c-0.3,0.2-0.7,0.3-1.3,0.5c-0.5,0.2-1.2,0.2-1.9,0.2
			c-1.3,0-2.4-0.3-3.1-0.9s-1.1-1.5-1.1-2.8V344.8z"/>
		<path d="M195.7,354c-0.1,0-0.3,0-0.4,0c-0.6,0-0.9-0.2-0.9-0.7V341c0.1,0,0.2-0.1,0.3-0.1c0.1,0,0.3,0,0.4,0
			c0.6,0,0.9,0.2,0.9,0.7V354C195.9,354,195.8,354,195.7,354z"/>
		<path d="M199,341.8c0-0.3,0.1-0.5,0.3-0.7s0.4-0.3,0.8-0.3s0.6,0.1,0.7,0.3c0.2,0.2,0.3,0.4,0.3,0.7s-0.1,0.5-0.3,0.7
			c-0.2,0.2-0.4,0.3-0.7,0.3s-0.6-0.1-0.8-0.3S199,342.1,199,341.8z M200.9,354c-0.1,0-0.2,0.1-0.3,0.1s-0.3,0-0.4,0
			c-0.6,0-0.9-0.2-0.9-0.7v-8.6c0.1,0,0.2-0.1,0.3-0.1c0.1,0,0.3,0,0.4,0c0.6,0,0.8,0.2,0.8,0.7V354z"/>
		<path d="M204,344.8c0.1,0,0.2-0.1,0.3-0.1s0.3,0,0.4,0c0.6,0,0.8,0.2,0.8,0.7v5.1c0,0.9,0.2,1.5,0.7,1.8c0.5,0.4,1.1,0.6,1.9,0.6
			c0.5,0,1-0.1,1.4-0.2c0.4-0.1,0.7-0.2,0.9-0.3v-7.6c0.1,0,0.2-0.1,0.3-0.1s0.3,0,0.4,0c0.6,0,0.9,0.2,0.9,0.7v7
			c0,0.3,0,0.5-0.1,0.7c-0.1,0.2-0.3,0.3-0.5,0.5c-0.3,0.2-0.7,0.3-1.3,0.5c-0.5,0.2-1.2,0.2-1.9,0.2c-1.3,0-2.4-0.3-3.1-0.9
			s-1.1-1.5-1.1-2.8V344.8z"/>
		<path d="M221.5,351.5c0,0.9-0.3,1.5-0.9,2c-0.6,0.5-1.5,0.7-2.7,0.7c-0.5,0-1,0-1.4-0.1s-0.8-0.2-1.1-0.3
			c-0.3-0.1-0.5-0.3-0.7-0.5c-0.2-0.2-0.3-0.4-0.3-0.5c0-0.2,0-0.3,0.1-0.5c0.1-0.1,0.2-0.3,0.4-0.4c0.4,0.3,0.8,0.5,1.3,0.7
			c0.5,0.2,1,0.3,1.6,0.3c1.4,0,2.1-0.5,2.1-1.4c0-0.8-0.5-1.3-1.4-1.5l-1.7-0.4c-0.8-0.2-1.4-0.5-1.8-0.9c-0.4-0.4-0.6-0.9-0.6-1.6
			c0-0.3,0.1-0.7,0.2-1s0.4-0.6,0.6-0.8c0.3-0.2,0.7-0.4,1.1-0.6c0.4-0.1,0.9-0.2,1.5-0.2c0.9,0,1.7,0.1,2.3,0.4s0.9,0.6,0.9,1
			c0,0.2,0,0.3-0.1,0.5c-0.1,0.1-0.2,0.2-0.3,0.3c-0.2-0.2-0.6-0.3-1-0.5c-0.4-0.2-1-0.3-1.6-0.3s-1.1,0.1-1.4,0.3
			c-0.4,0.2-0.5,0.5-0.5,1c0,0.3,0.1,0.6,0.3,0.8c0.2,0.2,0.5,0.4,1,0.5l1.4,0.3c0.9,0.2,1.6,0.6,2,1
			C221.3,350.2,221.5,350.8,221.5,351.5z"/>
		<path d="M231.6,352.9c0.9,0,1.6-0.2,2-0.6c0.5-0.4,0.7-0.9,0.7-1.6c0-0.6-0.2-1-0.5-1.4c-0.4-0.3-0.9-0.6-1.7-0.9l-1.7-0.5
			c-0.9-0.3-1.5-0.6-2-1.1c-0.5-0.5-0.7-1.2-0.7-2c0-0.5,0.1-1,0.3-1.4c0.2-0.4,0.5-0.8,0.8-1c0.4-0.3,0.8-0.5,1.3-0.7
			c0.5-0.2,1.1-0.2,1.7-0.2c0.5,0,1,0,1.5,0.1s0.9,0.2,1.2,0.4c0.3,0.2,0.6,0.3,0.8,0.5c0.2,0.2,0.3,0.4,0.3,0.6
			c0,0.2,0,0.3-0.1,0.5c-0.1,0.1-0.2,0.2-0.4,0.3c-0.3-0.3-0.8-0.5-1.4-0.7s-1.2-0.3-1.9-0.3c-0.8,0-1.4,0.2-1.8,0.5
			c-0.4,0.3-0.7,0.8-0.7,1.4c0,0.5,0.2,0.8,0.5,1.1c0.3,0.3,0.9,0.5,1.6,0.8l1.2,0.4c1.1,0.3,1.9,0.7,2.5,1.3s0.9,1.3,0.9,2.3
			c0,1.1-0.4,1.9-1.1,2.6c-0.8,0.7-1.8,1-3.2,1c-0.6,0-1.2-0.1-1.7-0.2c-0.5-0.1-0.9-0.2-1.3-0.4c-0.4-0.2-0.6-0.4-0.8-0.6
			c-0.2-0.2-0.3-0.4-0.3-0.6c0-0.2,0.1-0.4,0.2-0.6c0.1-0.2,0.3-0.3,0.5-0.3c0.1,0.1,0.3,0.3,0.5,0.5s0.5,0.3,0.7,0.4
			c0.3,0.1,0.6,0.2,0.9,0.3S231.1,352.9,231.6,352.9z"/>
		<path d="M242.3,354.3c-0.5,0-0.9-0.1-1.3-0.2c-0.4-0.1-0.8-0.2-1-0.4v3.9c-0.1,0-0.2,0.1-0.3,0.1c-0.1,0-0.3,0-0.4,0
			c-0.6,0-0.9-0.2-0.9-0.7v-10.6c0-0.3,0-0.5,0.1-0.6c0.1-0.2,0.3-0.3,0.6-0.5c0.4-0.2,0.8-0.4,1.3-0.5s1.1-0.3,1.7-0.3
			c0.7,0,1.3,0.1,1.8,0.3c0.6,0.2,1.1,0.5,1.5,0.9c0.4,0.4,0.8,0.9,1,1.5s0.4,1.3,0.4,2.2c0,0.8-0.1,1.5-0.3,2.2
			c-0.2,0.6-0.5,1.1-0.9,1.5c-0.4,0.4-0.9,0.7-1.4,0.9S242.9,354.3,242.3,354.3z M242,352.9c0.9,0,1.7-0.3,2.3-0.9
			c0.6-0.6,0.8-1.5,0.8-2.7c0-0.7-0.1-1.2-0.3-1.7s-0.4-0.8-0.7-1.1c-0.3-0.3-0.6-0.5-1-0.6c-0.4-0.1-0.8-0.2-1.2-0.2
			c-0.5,0-0.9,0.1-1.2,0.2c-0.3,0.1-0.6,0.3-0.9,0.4v5.9c0.3,0.2,0.6,0.3,0.9,0.5S241.6,352.9,242,352.9z"/>
		<path d="M249.1,341.8c0-0.3,0.1-0.5,0.3-0.7s0.4-0.3,0.8-0.3s0.6,0.1,0.7,0.3c0.2,0.2,0.3,0.4,0.3,0.7s-0.1,0.5-0.3,0.7
			c-0.2,0.2-0.4,0.3-0.7,0.3s-0.6-0.1-0.8-0.3S249.1,342.1,249.1,341.8z M250.9,354c-0.1,0-0.2,0.1-0.3,0.1s-0.3,0-0.4,0
			c-0.6,0-0.9-0.2-0.9-0.7v-8.6c0.1,0,0.2-0.1,0.3-0.1c0.1,0,0.3,0,0.4,0c0.6,0,0.8,0.2,0.8,0.7V354z"/>
		<path d="M255.2,350.3c0.4,1.7,1.5,2.6,3.4,2.6c0.6,0,1.1-0.1,1.5-0.3c0.5-0.2,0.8-0.4,1.1-0.6c0.3,0.2,0.5,0.4,0.5,0.8
			c0,0.2-0.1,0.4-0.3,0.5c-0.2,0.2-0.4,0.3-0.7,0.5c-0.3,0.1-0.6,0.2-1,0.3s-0.8,0.1-1.2,0.1c-1.5,0-2.8-0.4-3.7-1.3
			s-1.4-2.1-1.4-3.7c0-0.8,0.1-1.4,0.3-2c0.2-0.6,0.5-1.1,0.9-1.5c0.4-0.4,0.9-0.7,1.4-1c0.5-0.2,1.1-0.3,1.8-0.3
			c0.6,0,1.2,0.1,1.7,0.3c0.5,0.2,0.9,0.5,1.3,0.9c0.4,0.4,0.7,0.8,0.9,1.3c0.2,0.5,0.3,1,0.3,1.6c0,0.3-0.1,0.5-0.2,0.6
			c-0.1,0.1-0.3,0.2-0.6,0.2L255.2,350.3z M258,345.8c-0.8,0-1.5,0.3-2,0.9c-0.5,0.6-0.8,1.4-0.8,2.4l5.5-0.8
			c-0.1-0.7-0.3-1.3-0.8-1.8C259.4,346,258.8,345.8,258,345.8z"/>
		<path d="M270.6,353c-0.2,0.2-0.5,0.3-0.9,0.5c-0.4,0.1-0.9,0.2-1.4,0.2c-0.6,0-1.1-0.1-1.7-0.3c-0.5-0.2-1-0.4-1.4-0.8
			c-0.4-0.4-0.7-0.8-0.9-1.4c-0.2-0.6-0.4-1.3-0.4-2.1c0-0.8,0.1-1.4,0.3-2c0.2-0.6,0.5-1.1,1-1.4s0.9-0.7,1.4-0.9
			c0.6-0.2,1.2-0.3,1.9-0.3c0.6,0,1.2,0.1,1.7,0.2s0.9,0.3,1.3,0.6c0.2,0.1,0.4,0.3,0.5,0.5s0.2,0.4,0.2,0.6v8
			c0,0.7-0.1,1.2-0.3,1.7c-0.2,0.5-0.5,0.8-0.9,1.1c-0.4,0.3-0.9,0.5-1.4,0.6s-1.1,0.2-1.7,0.2c-0.7,0-1.3-0.1-1.7-0.2
			s-0.8-0.3-1-0.4c-0.4-0.2-0.6-0.5-0.6-0.9c0-0.2,0-0.3,0.1-0.5c0.1-0.1,0.2-0.2,0.3-0.3c0.3,0.2,0.7,0.4,1.2,0.6
			c0.5,0.2,1.1,0.3,1.7,0.3c0.9,0,1.6-0.2,2-0.6c0.5-0.4,0.7-1,0.7-1.8V353z M268.5,352.4c0.5,0,1-0.1,1.3-0.3
			c0.3-0.2,0.6-0.4,0.9-0.6v-5.2c-0.2-0.1-0.5-0.3-0.9-0.4s-0.7-0.2-1.2-0.2c-0.9,0-1.6,0.3-2.2,0.8c-0.5,0.5-0.8,1.4-0.8,2.4
			c0,0.6,0.1,1.1,0.2,1.5c0.1,0.4,0.4,0.8,0.6,1c0.3,0.3,0.6,0.5,0.9,0.6C267.7,352.3,268.1,352.4,268.5,352.4z"/>
		<path d="M276.3,350.3c0.4,1.7,1.5,2.6,3.4,2.6c0.6,0,1.1-0.1,1.5-0.3c0.5-0.2,0.8-0.4,1.1-0.6c0.3,0.2,0.5,0.4,0.5,0.8
			c0,0.2-0.1,0.4-0.3,0.5c-0.2,0.2-0.4,0.3-0.7,0.5c-0.3,0.1-0.6,0.2-1,0.3s-0.8,0.1-1.2,0.1c-1.5,0-2.8-0.4-3.7-1.3
			c-0.9-0.8-1.3-2.1-1.3-3.7c0-0.8,0.1-1.4,0.3-2c0.2-0.6,0.5-1.1,0.9-1.5c0.4-0.4,0.9-0.7,1.4-1s1.1-0.3,1.8-0.3
			c0.6,0,1.2,0.1,1.7,0.3c0.5,0.2,0.9,0.5,1.3,0.9c0.4,0.4,0.7,0.8,0.9,1.3s0.3,1,0.3,1.6c0,0.3-0.1,0.5-0.2,0.6
			c-0.1,0.1-0.3,0.2-0.6,0.2L276.3,350.3z M279.1,345.8c-0.8,0-1.5,0.3-2,0.9c-0.5,0.6-0.8,1.4-0.8,2.4l5.5-0.8
			c-0.1-0.7-0.3-1.3-0.8-1.8C280.5,346,279.9,345.8,279.1,345.8z"/>
		<path d="M287,354c-0.1,0-0.3,0-0.4,0c-0.6,0-0.9-0.2-0.9-0.7V341c0.1,0,0.2-0.1,0.3-0.1s0.3,0,0.4,0c0.6,0,0.9,0.2,0.9,0.7V354
			C287.3,354,287.2,354,287,354z"/>
		<path d="M294.6,344.5c0.6,0,1.2,0.1,1.7,0.3s1,0.5,1.4,0.9c0.4,0.4,0.7,0.9,0.9,1.5s0.3,1.3,0.3,2.2c0,0.8-0.1,1.6-0.3,2.2
			c-0.2,0.6-0.5,1.1-1,1.5s-0.9,0.7-1.5,0.9c-0.6,0.2-1.2,0.3-1.9,0.3c-0.7,0-1.2-0.1-1.8-0.2s-1-0.3-1.3-0.5
			c-0.3-0.2-0.5-0.3-0.6-0.5c-0.1-0.2-0.2-0.4-0.2-0.7V341c0.1,0,0.2-0.1,0.3-0.1s0.3,0,0.4,0c0.6,0,0.8,0.2,0.8,0.7v3.6
			c0.3-0.2,0.6-0.4,1-0.5S294.1,344.5,294.6,344.5z M294.4,345.8c-0.5,0-0.9,0.1-1.3,0.3c-0.4,0.2-0.7,0.4-1,0.6v5.7
			c0.2,0.1,0.5,0.3,0.9,0.4c0.4,0.1,0.8,0.2,1.3,0.2c0.5,0,0.9-0.1,1.2-0.2c0.4-0.1,0.7-0.4,1-0.7c0.3-0.3,0.5-0.7,0.6-1.1
			c0.1-0.4,0.2-1,0.2-1.6s-0.1-1.1-0.2-1.6c-0.1-0.5-0.4-0.8-0.6-1.1c-0.3-0.3-0.6-0.5-1-0.6C295.2,345.9,294.8,345.8,294.4,345.8z"
			/>
		<path d="M302.6,350.3c0.4,1.7,1.5,2.6,3.4,2.6c0.6,0,1.1-0.1,1.5-0.3c0.5-0.2,0.8-0.4,1.1-0.6c0.3,0.2,0.5,0.4,0.5,0.8
			c0,0.2-0.1,0.4-0.3,0.5c-0.2,0.2-0.4,0.3-0.7,0.5c-0.3,0.1-0.6,0.2-1,0.3c-0.4,0.1-0.8,0.1-1.2,0.1c-1.5,0-2.8-0.4-3.7-1.3
			s-1.4-2.1-1.4-3.7c0-0.8,0.1-1.4,0.3-2c0.2-0.6,0.5-1.1,0.9-1.5c0.4-0.4,0.9-0.7,1.4-1s1.1-0.3,1.8-0.3c0.6,0,1.2,0.1,1.7,0.3
			s0.9,0.5,1.3,0.9c0.4,0.4,0.7,0.8,0.9,1.3c0.2,0.5,0.3,1,0.3,1.6c0,0.3-0.1,0.5-0.2,0.6c-0.1,0.1-0.3,0.2-0.6,0.2L302.6,350.3z
			 M305.4,345.8c-0.8,0-1.5,0.3-2,0.9c-0.5,0.6-0.8,1.4-0.8,2.4l5.5-0.8c-0.1-0.7-0.3-1.3-0.8-1.8
			C306.8,346,306.2,345.8,305.4,345.8z"/>
		<path d="M313.4,354c-0.1,0-0.2,0.1-0.3,0.1s-0.3,0-0.4,0c-0.6,0-0.9-0.2-0.9-0.7v-6.8c0-0.3,0.1-0.5,0.2-0.7s0.3-0.4,0.6-0.5
			c0.3-0.2,0.8-0.4,1.4-0.6c0.6-0.2,1.3-0.3,2-0.3c1.1,0,1.6,0.3,1.6,0.8c0,0.1,0,0.3-0.1,0.4s-0.1,0.2-0.2,0.3
			c-0.1,0-0.3-0.1-0.5-0.1c-0.2,0-0.4,0-0.6,0c-0.6,0-1.2,0.1-1.6,0.2s-0.9,0.3-1.2,0.5V354z"/>
		<path d="M325.4,353c-0.2,0.2-0.5,0.3-0.9,0.5c-0.4,0.1-0.9,0.2-1.4,0.2c-0.6,0-1.1-0.1-1.7-0.3c-0.5-0.2-1-0.4-1.4-0.8
			c-0.4-0.4-0.7-0.8-0.9-1.4c-0.2-0.6-0.3-1.3-0.3-2.1c0-0.8,0.1-1.4,0.3-2c0.2-0.6,0.5-1.1,1-1.4s0.9-0.7,1.5-0.9
			c0.6-0.2,1.2-0.3,1.9-0.3c0.6,0,1.2,0.1,1.7,0.2c0.5,0.2,0.9,0.3,1.3,0.6c0.2,0.1,0.4,0.3,0.5,0.5s0.2,0.4,0.2,0.6v8
			c0,0.7-0.1,1.2-0.3,1.7c-0.2,0.5-0.5,0.8-0.9,1.1c-0.4,0.3-0.9,0.5-1.4,0.6c-0.5,0.1-1.1,0.2-1.7,0.2c-0.7,0-1.3-0.1-1.7-0.2
			s-0.8-0.3-1-0.4c-0.4-0.2-0.6-0.5-0.6-0.9c0-0.2,0-0.3,0.1-0.5c0.1-0.1,0.2-0.2,0.3-0.3c0.3,0.2,0.7,0.4,1.2,0.6
			c0.5,0.2,1.1,0.3,1.7,0.3c0.9,0,1.6-0.2,2-0.6s0.7-1,0.7-1.8V353z M323.3,352.4c0.5,0,1-0.1,1.3-0.3c0.3-0.2,0.6-0.4,0.8-0.6v-5.2
			c-0.2-0.1-0.5-0.3-0.8-0.4s-0.7-0.2-1.2-0.2c-0.9,0-1.6,0.3-2.2,0.8c-0.5,0.5-0.8,1.4-0.8,2.4c0,0.6,0.1,1.1,0.2,1.5
			s0.3,0.8,0.6,1c0.3,0.3,0.6,0.5,0.9,0.6C322.5,352.3,322.9,352.4,323.3,352.4z"/>
		<path d="M343.9,352.6c0,0.2-0.1,0.4-0.2,0.6c-0.1,0.2-0.4,0.3-0.6,0.5c-0.3,0.2-0.8,0.3-1.4,0.4c-0.6,0.1-1.2,0.2-1.8,0.2
			c-0.9,0-1.8-0.1-2.6-0.4s-1.4-0.6-2-1.2c-0.6-0.5-1-1.2-1.3-2s-0.5-1.7-0.5-2.8c0-1.1,0.2-2,0.5-2.8c0.3-0.8,0.8-1.5,1.3-2
			c0.6-0.5,1.2-0.9,1.9-1.2c0.7-0.3,1.5-0.4,2.3-0.4c0.6,0,1.1,0,1.6,0.1c0.5,0.1,0.9,0.2,1.2,0.4c0.3,0.2,0.6,0.3,0.8,0.5
			c0.2,0.2,0.3,0.4,0.3,0.6s-0.1,0.3-0.2,0.5c-0.1,0.1-0.2,0.2-0.4,0.3c-0.4-0.2-0.8-0.5-1.3-0.7c-0.5-0.2-1.1-0.3-1.9-0.3
			c-0.6,0-1.2,0.1-1.8,0.3c-0.5,0.2-1,0.5-1.4,0.9c-0.4,0.4-0.7,0.9-0.9,1.6c-0.2,0.6-0.3,1.3-0.3,2.2c0,0.9,0.1,1.6,0.4,2.2
			c0.2,0.6,0.6,1.1,1,1.5c0.4,0.4,0.9,0.7,1.5,0.9c0.6,0.2,1.2,0.3,1.9,0.3c0.5,0,0.9,0,1.4-0.1c0.4-0.1,0.8-0.2,1-0.3v-3.7h-3
			c0-0.1-0.1-0.2-0.1-0.3c0-0.1-0.1-0.2-0.1-0.4c0-0.2,0.1-0.4,0.2-0.5s0.3-0.2,0.5-0.2h3.3c0.2,0,0.4,0.1,0.6,0.2
			c0.2,0.2,0.3,0.4,0.3,0.6V352.6z"/>
		<path d="M348.3,351.9c-0.2-0.3-0.4-0.7-0.6-1.2c-0.2-0.5-0.5-1-0.7-1.7c-0.2-0.6-0.5-1.3-0.8-1.9s-0.5-1.4-0.7-2.1
			c0.1-0.1,0.2-0.2,0.4-0.3c0.2-0.1,0.3-0.1,0.5-0.1c0.2,0,0.4,0.1,0.5,0.2c0.1,0.1,0.3,0.3,0.4,0.6c0.4,1.1,0.8,2.2,1.3,3.3
			c0.4,1.1,0.9,2.2,1.5,3.4h0.1c0.2-0.4,0.4-0.9,0.7-1.5c0.2-0.6,0.5-1.2,0.7-1.9c0.2-0.7,0.4-1.3,0.6-2s0.4-1.3,0.5-2
			c0.1,0,0.2-0.1,0.3-0.1s0.2,0,0.4,0c0.2,0,0.4,0.1,0.6,0.2c0.1,0.1,0.2,0.3,0.2,0.5c0,0.3-0.1,0.8-0.3,1.5
			c-0.2,0.7-0.4,1.5-0.7,2.4c-0.3,0.9-0.6,1.8-1,2.7c-0.4,0.9-0.8,1.8-1.2,2.5c-0.6,1.1-1.2,2-1.7,2.6s-1,0.9-1.4,0.9
			c-0.3,0-0.5-0.1-0.7-0.2c-0.2-0.2-0.3-0.3-0.3-0.6c0.2-0.2,0.5-0.4,0.7-0.7c0.3-0.3,0.5-0.6,0.8-1c0.3-0.3,0.5-0.7,0.8-1
			c0.2-0.4,0.4-0.7,0.6-1c-0.2-0.1-0.4-0.2-0.6-0.4C348.8,352.7,348.6,352.4,348.3,351.9z"/>
		<path d="M367.3,346.3c-0.4-0.3-0.9-0.5-1.5-0.5c-0.9,0-1.6,0.3-2.3,0.9c0.1,0.3,0.1,0.6,0.1,0.9v6.4c-0.1,0-0.2,0.1-0.3,0.1
			c-0.1,0-0.3,0-0.4,0c-0.6,0-0.9-0.2-0.9-0.7v-5.7c0-0.7-0.2-1.1-0.6-1.4c-0.4-0.3-0.9-0.5-1.5-0.5c-0.4,0-0.8,0.1-1.2,0.2
			c-0.4,0.1-0.7,0.3-1,0.5v7.5c-0.1,0-0.2,0.1-0.3,0.1s-0.3,0-0.4,0c-0.6,0-0.9-0.2-0.9-0.7v-6.8c0-0.3,0.1-0.5,0.2-0.7
			c0.1-0.2,0.3-0.4,0.6-0.5c0.4-0.2,0.8-0.4,1.4-0.6s1.1-0.3,1.7-0.3c0.7,0,1.2,0.1,1.7,0.3s0.9,0.5,1.2,0.8
			c0.3-0.3,0.8-0.6,1.3-0.8c0.5-0.2,1.1-0.3,1.8-0.3c1.1,0,1.9,0.3,2.6,0.8c0.6,0.5,1,1.3,1,2.4v6.3c-0.1,0-0.2,0.1-0.3,0.1
			c-0.1,0-0.3,0-0.4,0c-0.6,0-0.9-0.2-0.9-0.7v-5.7C367.8,347.1,367.6,346.6,367.3,346.3z"/>
		<path d="M378.2,346.3c-0.4-0.3-1-0.5-1.7-0.5c-0.5,0-1,0.1-1.4,0.2c-0.4,0.1-0.8,0.3-1.1,0.5v7.5c-0.1,0-0.2,0.1-0.3,0.1
			c-0.1,0-0.3,0-0.4,0c-0.6,0-0.9-0.2-0.9-0.7v-6.8c0-0.3,0.1-0.5,0.2-0.7s0.3-0.4,0.6-0.5c0.3-0.2,0.8-0.4,1.4-0.6
			c0.6-0.2,1.2-0.3,1.9-0.3c1.2,0,2.2,0.3,2.9,0.8c0.7,0.5,1.1,1.4,1.1,2.6v6.1c-0.1,0-0.2,0.1-0.3,0.1s-0.3,0-0.4,0
			c-0.6,0-0.9-0.2-0.9-0.7V348C378.8,347.2,378.6,346.7,378.2,346.3z"/>
		<path d="M386.7,344.5c1.2,0,2.1,0.3,2.8,0.8c0.7,0.5,1,1.3,1,2.5v4.7c0,0.3-0.1,0.5-0.2,0.7s-0.3,0.3-0.5,0.4
			c-0.3,0.2-0.7,0.3-1.3,0.5c-0.5,0.1-1.1,0.2-1.8,0.2c-1.3,0-2.2-0.2-2.9-0.7c-0.7-0.5-1-1.2-1-2.1c0-0.9,0.3-1.5,0.9-2
			s1.4-0.7,2.4-0.8l2.8-0.3v-0.6c0-0.7-0.2-1.2-0.6-1.5s-0.9-0.5-1.6-0.5c-0.6,0-1.1,0.1-1.6,0.2c-0.5,0.2-0.9,0.3-1.3,0.5
			c-0.1-0.1-0.2-0.2-0.3-0.3c-0.1-0.1-0.1-0.3-0.1-0.4c0-0.2,0-0.3,0.1-0.5c0.1-0.1,0.2-0.2,0.4-0.3c0.4-0.2,0.8-0.3,1.2-0.4
			C385.6,344.5,386.2,344.5,386.7,344.5z M386.7,353c0.6,0,1-0.1,1.4-0.2c0.4-0.1,0.6-0.2,0.8-0.3v-2.9l-2.5,0.3
			c-0.7,0.1-1.2,0.2-1.5,0.5c-0.3,0.2-0.5,0.6-0.5,1.1c0,0.5,0.2,0.9,0.6,1.2C385.3,352.8,385.9,353,386.7,353z"/>
		<path d="M399.9,351.5c0,0.9-0.3,1.5-0.9,2c-0.6,0.5-1.5,0.7-2.7,0.7c-0.5,0-1,0-1.4-0.1c-0.4-0.1-0.8-0.2-1.1-0.3
			c-0.3-0.1-0.5-0.3-0.7-0.5c-0.2-0.2-0.3-0.4-0.3-0.5c0-0.2,0-0.3,0.1-0.5c0.1-0.1,0.2-0.3,0.4-0.4c0.4,0.3,0.8,0.5,1.3,0.7
			c0.5,0.2,1,0.3,1.6,0.3c1.4,0,2.1-0.5,2.1-1.4c0-0.8-0.5-1.3-1.4-1.5l-1.7-0.4c-0.8-0.2-1.4-0.5-1.8-0.9c-0.4-0.4-0.6-0.9-0.6-1.6
			c0-0.3,0.1-0.7,0.2-1c0.1-0.3,0.4-0.6,0.7-0.8c0.3-0.2,0.7-0.4,1.1-0.6s0.9-0.2,1.5-0.2c0.9,0,1.7,0.1,2.3,0.4s0.9,0.6,0.9,1
			c0,0.2,0,0.3-0.1,0.5c-0.1,0.1-0.2,0.2-0.3,0.3c-0.2-0.2-0.6-0.3-1-0.5c-0.4-0.2-1-0.3-1.6-0.3c-0.6,0-1.1,0.1-1.4,0.3
			s-0.5,0.5-0.5,1c0,0.3,0.1,0.6,0.3,0.8c0.2,0.2,0.5,0.4,1,0.5l1.4,0.3c0.9,0.2,1.6,0.6,2,1C399.7,350.2,399.9,350.8,399.9,351.5z"
			/>
		<path d="M402.2,341.8c0-0.3,0.1-0.5,0.3-0.7s0.4-0.3,0.8-0.3s0.6,0.1,0.7,0.3c0.2,0.2,0.3,0.4,0.3,0.7s-0.1,0.5-0.3,0.7
			c-0.2,0.2-0.4,0.3-0.7,0.3s-0.6-0.1-0.8-0.3S402.2,342.1,402.2,341.8z M404,354c-0.1,0-0.2,0.1-0.3,0.1c-0.1,0-0.3,0-0.4,0
			c-0.6,0-0.9-0.2-0.9-0.7v-8.6c0.1,0,0.2-0.1,0.3-0.1s0.3,0,0.5,0c0.6,0,0.8,0.2,0.8,0.7V354z"/>
		<path d="M407.2,344.8c0.1,0,0.2-0.1,0.3-0.1s0.3,0,0.4,0c0.6,0,0.8,0.2,0.8,0.7v5.1c0,0.9,0.2,1.5,0.7,1.8
			c0.5,0.4,1.1,0.6,1.9,0.6c0.5,0,1-0.1,1.4-0.2c0.4-0.1,0.7-0.2,0.9-0.3v-7.6c0.1,0,0.2-0.1,0.3-0.1c0.1,0,0.3,0,0.4,0
			c0.6,0,0.9,0.2,0.9,0.7v7c0,0.3,0,0.5-0.1,0.7c-0.1,0.2-0.3,0.3-0.5,0.5c-0.3,0.2-0.7,0.3-1.3,0.5c-0.5,0.2-1.2,0.2-1.9,0.2
			c-1.3,0-2.4-0.3-3.1-0.9s-1.1-1.5-1.1-2.8V344.8z"/>
		<path d="M429.3,346.3c-0.4-0.3-0.9-0.5-1.5-0.5c-0.9,0-1.6,0.3-2.3,0.9c0.1,0.3,0.1,0.6,0.1,0.9v6.4c-0.1,0-0.2,0.1-0.3,0.1
			s-0.3,0-0.4,0c-0.6,0-0.9-0.2-0.9-0.7v-5.7c0-0.7-0.2-1.1-0.6-1.4s-0.9-0.5-1.5-0.5c-0.4,0-0.8,0.1-1.2,0.2
			c-0.4,0.1-0.7,0.3-1,0.5v7.5c-0.1,0-0.2,0.1-0.3,0.1c-0.1,0-0.3,0-0.4,0c-0.6,0-0.9-0.2-0.9-0.7v-6.8c0-0.3,0.1-0.5,0.2-0.7
			c0.1-0.2,0.3-0.4,0.6-0.5c0.4-0.2,0.8-0.4,1.4-0.6c0.6-0.2,1.1-0.3,1.7-0.3c0.7,0,1.2,0.1,1.7,0.3c0.5,0.2,0.9,0.5,1.2,0.8
			c0.3-0.3,0.8-0.6,1.3-0.8c0.5-0.2,1.1-0.3,1.8-0.3c1.1,0,1.9,0.3,2.6,0.8c0.6,0.5,1,1.3,1,2.4v6.3c-0.1,0-0.2,0.1-0.3,0.1
			c-0.1,0-0.3,0-0.4,0c-0.6,0-0.9-0.2-0.9-0.7v-5.7C429.9,347.1,429.7,346.6,429.3,346.3z"/>
	</g>
</g>
</svg>
